<svg width="122" height="17" viewBox="0 0 122 17" fill="none" xmlns="http://www.w3.org/2000/svg">
<g clip-path="url(#clip0_71_1605)">
<path d="M20.994 0.0550059C18.7198 0.0562477 16.4642 0.464693 14.334 1.26101C14.2694 1.29066 14.2157 1.33976 14.1804 1.40144C14.145 1.46312 14.1299 1.53429 14.137 1.60501L14.495 4.01801C14.506 4.07101 14.535 4.11801 14.579 4.15001C14.6031 4.16176 14.6296 4.16787 14.6565 4.16787C14.6833 4.16787 14.7098 4.16176 14.734 4.15001C15.7148 3.86629 16.7094 3.63266 17.714 3.45001C20.099 3.04001 21.423 3.15001 22.09 3.78801C22.2844 3.99419 22.424 4.24587 22.496 4.51998C22.568 4.7941 22.57 5.08189 22.502 5.35701L22.442 5.81501C22.442 5.81501 19.551 6.20701 17.672 6.56301C16.2614 6.75167 14.902 7.21726 13.672 7.93301C11.717 9.22301 11.234 11.745 11.61 13.543C11.938 15.117 13.309 16.999 17.989 16.999H18.329C25.483 16.999 26.419 15.762 26.735 13.144L27.718 5.06101C27.868 3.62601 27.635 2.55801 26.919 1.75601C25.906 0.610006 23.97 0.0550059 20.994 0.0550059ZM22.049 8.94501C22.049 8.94501 21.906 10.309 21.906 10.327L21.482 13.771H21.422C20.7572 13.9576 20.0682 14.0432 19.378 14.025C18.6056 14.0996 17.8348 13.8676 17.232 13.379C17.0384 13.1687 16.8894 12.9213 16.794 12.6518C16.6987 12.3823 16.6588 12.0963 16.677 11.811C16.677 10.436 17.487 9.57301 19.145 9.26001C20.133 9.07226 21.1273 8.91917 22.126 8.80101L22.049 8.94601V8.94501ZM85.821 0.0550059H85.296C81.505 0.0550059 78.929 1.16501 77.647 3.33601C76.616 5.06701 76.121 10.936 76.115 10.996C76.0033 11.9268 76.101 12.8708 76.401 13.759C77.469 16.631 81.171 17.023 83.299 16.999C87.121 16.999 89.702 15.895 90.96 13.778C91.348 13.126 91.914 11.304 92.439 6.36401V6.19001C92.5627 5.3021 92.4996 4.39816 92.254 3.53601C91.43 0.780006 88.301 0.127006 85.821 0.0550059ZM86.697 10.768V10.852C86.651 11.655 86.3458 12.4214 85.827 13.036C85.327 13.5029 84.6691 13.7636 83.985 13.766C83.3967 13.8375 82.8004 13.7302 82.274 13.458C81.9768 13.2684 81.7284 13.0115 81.549 12.708C81.3682 12.4036 81.261 12.0612 81.236 11.708C81.201 11.244 81.612 8.37301 81.833 6.82801L81.933 6.11701C82.0151 5.25807 82.4204 4.46241 83.067 3.89101C83.5782 3.49457 84.2081 3.28213 84.855 3.28801C85.4052 3.25327 85.9532 3.38349 86.429 3.66201C86.7036 3.86488 86.9255 4.13071 87.076 4.43715C87.2265 4.74358 87.3013 5.08168 87.294 5.42301C87.294 5.72501 87.103 7.58901 86.697 10.768ZM75.68 0.194006H73.408C72.7976 0.177899 72.1934 0.319822 71.654 0.606006C71.114 0.892006 70.654 1.31301 70.32 1.82901L64.56 9.06801L64.716 8.63901L65.729 0.424006C65.7343 0.396831 65.7327 0.368756 65.7243 0.342367C65.7159 0.315979 65.701 0.292126 65.681 0.273006C65.6632 0.25247 65.6413 0.235961 65.6166 0.22458C65.5919 0.213199 65.5651 0.207208 65.538 0.207006H60.805C60.74 0.209473 60.6779 0.234152 60.6289 0.276922C60.58 0.319692 60.5472 0.377964 60.536 0.442006L58.557 16.445C58.5525 16.4966 58.5675 16.5479 58.599 16.589C58.639 16.619 58.686 16.636 58.736 16.638H61.21C61.8188 16.6476 62.4197 16.5002 62.955 16.21C63.4924 15.9184 63.9467 15.4948 64.275 14.979L69.902 7.57801L69.718 8.03601L68.692 16.421C68.6877 16.4744 68.7026 16.5276 68.734 16.571C68.7539 16.5921 68.7779 16.6089 68.8046 16.6204C68.8312 16.632 68.86 16.6379 68.889 16.638H73.617C73.6828 16.635 73.7455 16.6092 73.7944 16.5651C73.8433 16.5209 73.8753 16.4612 73.885 16.396L75.852 0.376006C75.8586 0.351546 75.8587 0.325804 75.8524 0.301275C75.8461 0.276747 75.8335 0.254264 75.816 0.236006C75.7763 0.207039 75.7291 0.192247 75.68 0.194006ZM109.824 0.0630059L105.001 0.666006C104.931 0.676981 104.867 0.709634 104.816 0.759343C104.766 0.809053 104.733 0.873304 104.721 0.943006L104.035 6.54701L104 6.77701H99.391L100.19 0.244006C100.193 0.218193 100.191 0.192039 100.184 0.167006C100.177 0.141986 100.165 0.118777 100.148 0.0990059C100.129 0.0841527 100.107 0.073314 100.083 0.0671306C100.06 0.0609472 100.035 0.0595447 100.011 0.0630059L95.188 0.666006C95.1179 0.676247 95.0529 0.708659 95.0025 0.7585C94.9521 0.808341 94.919 0.872996 94.908 0.943006L93.036 16.41C93.0319 16.4508 93.0405 16.4919 93.0605 16.5276C93.0805 16.5634 93.1111 16.5922 93.148 16.61C93.1728 16.6213 93.1997 16.6271 93.227 16.627H97.96C98.0279 16.6254 98.093 16.5995 98.1435 16.554C98.1939 16.5085 98.2264 16.4464 98.235 16.379L98.998 10.19V10.142H103.612L102.843 16.41C102.839 16.4508 102.847 16.4919 102.867 16.5278C102.887 16.5636 102.918 16.5923 102.955 16.61C102.98 16.6212 103.007 16.627 103.034 16.627H104.226C106.408 16.627 108.012 16.361 108.352 13.81L110.027 0.244006C110.033 0.218669 110.033 0.192174 110.026 0.167006C110.02 0.141843 110.008 0.11851 109.991 0.0990059C109.969 0.0788013 109.942 0.0648278 109.912 0.0585049C109.883 0.052182 109.853 0.0537349 109.824 0.0630059ZM58.61 3.67601L59.015 0.358006C59.0177 0.331125 59.0149 0.303975 59.0068 0.278195C58.9988 0.252414 58.9855 0.228538 58.968 0.208006C58.9493 0.186702 58.9262 0.169687 58.9003 0.158124C58.8744 0.146561 58.8463 0.140722 58.818 0.141006H40.88C40.5519 0.15833 40.2436 0.303331 40.021 0.545006L35.007 6.76501H34.292L35.097 0.238006C35.1022 0.213019 35.1011 0.187119 35.0938 0.162666C35.0864 0.138213 35.0731 0.115985 35.055 0.0980059C35.0366 0.0813938 35.0148 0.0690909 34.9911 0.0619971C34.9674 0.0549032 34.9424 0.0531979 34.918 0.0570059L30.095 0.660006C30.0249 0.670247 29.9599 0.702659 29.9095 0.7525C29.8591 0.802341 29.826 0.866996 29.815 0.937006L27.913 16.385C27.9075 16.4115 27.9085 16.439 27.9158 16.4651C27.9231 16.4912 27.9365 16.5152 27.955 16.535C27.9738 16.5559 27.9968 16.5726 28.0224 16.5842C28.0481 16.5957 28.0759 16.6018 28.104 16.602H32.873C32.9383 16.598 33.0003 16.5719 33.049 16.5282C33.0976 16.4844 33.1301 16.4255 33.141 16.361L33.911 10.124H34.65L38.09 16.367C38.1316 16.4338 38.1883 16.4898 38.2555 16.5306C38.3227 16.5714 38.3986 16.5959 38.477 16.602H43.61C43.694 16.602 43.777 16.56 43.706 16.415L39.008 8.49001L42.907 3.92401H48.541L47.008 16.386C47.0025 16.4125 47.0035 16.44 47.0108 16.4661C47.0181 16.4922 47.0315 16.5162 47.05 16.536C47.0689 16.5571 47.092 16.5739 47.1179 16.5854C47.1437 16.597 47.1717 16.603 47.2 16.603H51.933C51.999 16.6012 52.0622 16.576 52.1113 16.5318C52.1604 16.4877 52.1922 16.4275 52.201 16.362L53.709 3.92401H58.336C58.4032 3.92103 58.4673 3.89475 58.5173 3.84969C58.5673 3.80462 58.6001 3.74258 58.61 3.67601ZM121.907 8.44901L117.513 0.607006C117.437 0.48564 117.333 0.384446 117.209 0.312021C117.085 0.239596 116.946 0.198082 116.803 0.191006H112.88C112.606 0.191006 112.469 0.372006 112.6 0.595006L117.012 8.43701L110.633 16.279C110.46 16.471 110.543 16.634 110.824 16.634H115.349C115.659 16.62 115.953 16.484 116.165 16.254L121.823 9.30601C121.922 9.18835 121.983 9.0435 121.998 8.89053C122.013 8.73756 121.981 8.58363 121.907 8.44901ZM11.184 0.191006H6.65898C6.34516 0.203699 6.04918 0.34036 5.83598 0.571006L0.183985 7.52001C0.0809496 7.63915 0.0175915 7.78743 0.00271663 7.94425C-0.0121582 8.10106 0.0221891 8.25861 0.100985 8.39501L4.49398 16.236C4.56799 16.3593 4.6718 16.462 4.79586 16.5347C4.91992 16.6074 5.06026 16.6477 5.20398 16.652H9.11998C9.39998 16.652 9.53698 16.472 9.39998 16.248L4.99498 8.40701L11.375 0.565006C11.541 0.348006 11.458 0.191006 11.184 0.191006Z" fill="#F1361D"/>
</g>
<defs>
<clipPath id="clip0_71_1605">
<rect width="122" height="17" fill="white"/>
</clipPath>
</defs>
</svg>
